<svg xmlns="http://www.w3.org/2000/svg" viewBox="0 0 76.76 13.5"><title>pushe</title><g id="Layer_2" data-name="Layer 2"><g id="Layer_1-2" data-name="Layer 1"><path d="M48,11.36H46.31V7.59H35.75V2.14H48V5.9h9.37V7.59H48ZM37.44,5.9h8.87V3.83H37.44Z" fill="#202020"/><polygon points="8.82 7.59 0 7.59 0 2.17 12.2 2.17 12.2 5.88 34.09 5.88 34.09 7.57 10.51 7.57 10.51 3.86 1.69 3.86 1.69 5.9 8.82 5.9 8.82 7.59" fill="#202020"/><polygon points="57.38 11.36 55.69 11.36 55.69 10.47 49.16 10.47 49.16 8.78 57.38 8.78 57.38 11.36" fill="#202020"/><polygon points="34.08 4.68 25.87 4.68 25.87 2.99 32.39 2.99 32.39 2.14 34.08 2.14 34.08 4.68" fill="#202020"/><polygon points="68.75 0 68.75 1.64 75.12 1.64 75.12 2.5 76.76 2.5 76.76 0 68.75 0" fill="#0065ff"/><polygon points="75.12 10.3 62.36 10.3 62.36 1.64 67.08 1.64 67.08 0 60.72 0 60.73 13.5 62.68 11.94 76.76 11.94 76.76 4.16 75.12 4.16 75.12 10.3" fill="#0065ff"/></g></g></svg>